<?xml version="1.0" encoding="utf-8"?>
<!-- Generator: Adobe Illustrator 26.0.0, SVG Export Plug-In . SVG Version: 6.00 Build 0)  -->
<svg version="1.1" xmlns="http://www.w3.org/2000/svg" xmlns:xlink="http://www.w3.org/1999/xlink" x="0px" y="0px"
	 viewBox="0 0 150 97" enable-background="new 0 0 150 97" xml:space="preserve">
<g id="Layer_2" display="none">
</g>
<g id="Layer_1">
	<g>
		<linearGradient id="SVGID_1_" gradientUnits="userSpaceOnUse" x1="102.6579" y1="60.6278" x2="54.0637" y2="123.0348">
			<stop  offset="0" style="stop-color:#1B1464"/>
			<stop  offset="0.1088" style="stop-color:#3C1155"/>
			<stop  offset="0.3514" style="stop-color:#810B37"/>
			<stop  offset="0.5706" style="stop-color:#B70620"/>
			<stop  offset="0.7585" style="stop-color:#DE030E"/>
			<stop  offset="0.9079" style="stop-color:#F60104"/>
			<stop  offset="1" style="stop-color:#FF0000"/>
		</linearGradient>
		<path fill="url(#SVGID_1_)" d="M98.69,85.87c-1.04-0.35-2.04-0.89-2.95-1.62c0,0,0,0,0,0c-0.1-0.08-0.2-0.16-0.3-0.25l-7.78-6.15
			c-1.52-1.28-3.21-2.25-4.98-2.91c0,0,0,0,0,0c-0.8-0.3-1.62-0.54-2.45-0.71h0c-4.03-0.85-8.29-0.2-11.96,1.94
			c-0.83,0.48-1.63,1.04-2.39,1.68l-0.03,0.03c0.36-0.24,0.72-0.48,1.09-0.69c3.67-2.14,7.93-2.78,11.96-1.94h0
			c0.83,0.17,1.65,0.41,2.45,0.71c0,0,0,0,0,0c1.77,0.66,3.46,1.63,4.98,2.91l7.78,6.15c0.1,0.09,0.2,0.17,0.3,0.25c0,0,0,0,0,0
			c0.91,0.73,1.91,1.27,2.95,1.62c3.06,1.05,6.46,0.53,9.08-1.38c0.27-0.2,0.52-0.41,0.77-0.63
			C104.66,86.46,101.52,86.84,98.69,85.87z"/>
		
			<linearGradient id="SVGID_00000161595038410477493630000004899661612340840894_" gradientUnits="userSpaceOnUse" x1="114.0871" y1="37.3898" x2="91.5089" y2="59.1088">
			<stop  offset="0" style="stop-color:#1B1464"/>
			<stop  offset="0.1088" style="stop-color:#3C1155"/>
			<stop  offset="0.3514" style="stop-color:#810B37"/>
			<stop  offset="0.5706" style="stop-color:#B70620"/>
			<stop  offset="0.7585" style="stop-color:#DE030E"/>
			<stop  offset="0.9079" style="stop-color:#F60104"/>
			<stop  offset="1" style="stop-color:#FF0000"/>
		</linearGradient>
		<path fill="url(#SVGID_00000161595038410477493630000004899661612340840894_)" d="M109.12,63.42c0.79-1.24,1.85-3.98,1.85-5.35
			c0-2.57-1.09-4.06-1.47-4.53c-0.37-0.45-1-1.12-1.97-1.72c-1.08-0.73-2.16-1.47-3.24-2.2l-8.5-5.31c-0.82-0.52-1.5-1.17-2.05-1.91
			c-0.01-0.01-0.02-0.03-0.03-0.04c-1.15-1.93-1.65-3.01-0.63-5.12c0.01-0.03,0.03-0.05,0.04-0.08c0.1-0.21,0.21-0.41,0.34-0.61
			c0.3-0.47,0.45-1.31,0.84-1.68c-1.02,1.02-1.57,1.72-2.2,2.7c-0.13,0.2-0.24,0.4-0.34,0.61c-0.01,0.02-0.03,0.05-0.04,0.08
			c-1.03,2.11-0.86,4.89,0.29,6.82c0.01,0.02,0.02,0.03,0.03,0.04c0.55,0.74,1.23,1.39,2.05,1.91l7.82,4.97
			c1.08,0.73,2.16,1.47,3.24,2.2c0.97,0.6,1.6,1.27,1.97,1.72c0.39,0.47,1.81,1.96,1.81,4.53c0,1.37-0.38,2.75-1.17,3.99
			c-0.35,0.54-0.75,1.03-1.2,1.45C107.57,65.3,108.45,64.47,109.12,63.42z"/>
		
			<linearGradient id="SVGID_00000015324631719537726060000001217506805658670499_" gradientUnits="userSpaceOnUse" x1="134.3899" y1="11.5038" x2="105.0467" y2="35.2914">
			<stop  offset="0" style="stop-color:#1B1464"/>
			<stop  offset="0.1088" style="stop-color:#3C1155"/>
			<stop  offset="0.3514" style="stop-color:#810B37"/>
			<stop  offset="0.5706" style="stop-color:#B70620"/>
			<stop  offset="0.7585" style="stop-color:#DE030E"/>
			<stop  offset="0.9079" style="stop-color:#F60104"/>
			<stop  offset="1" style="stop-color:#FF0000"/>
		</linearGradient>
		<path fill="url(#SVGID_00000015324631719537726060000001217506805658670499_)" d="M125.19,39.27c3.05-3.95,0.75-8.92-2.58-11.09
			l-11.41-7.43c-3.16-2.06-3.67-5.22-1.98-8.61c0.11-0.17,0.25-0.5,0.34-0.68c0.34-0.68,0.34-0.68,0.31-0.7
			c-0.68,0.57-1.33,1.22-1.92,1.96c-0.03,0.03-0.05,0.07-0.08,0.1c-0.13,0.16-0.25,0.32-0.36,0.5c-2.06,3.16-1.51,8.08,1.66,10.14
			l11.41,7.43c3.34,2.17,6.05,5.02,3.91,8.38c-0.43,0.67-1.08,1.44-1.7,2.03C123.8,40.63,124.14,40.63,125.19,39.27z"/>
		
			<linearGradient id="SVGID_00000107565118232059008930000013025717568777856165_" gradientUnits="userSpaceOnUse" x1="10.5205" y1="65.4564" x2="136.6521" y2="12.5807">
			<stop  offset="1.501733e-03" style="stop-color:#1B144B"/>
			<stop  offset="0.1102" style="stop-color:#3C1140"/>
			<stop  offset="0.3524" style="stop-color:#810B2A"/>
			<stop  offset="0.5712" style="stop-color:#B70618"/>
			<stop  offset="0.7588" style="stop-color:#DE030B"/>
			<stop  offset="0.908" style="stop-color:#F60103"/>
			<stop  offset="1" style="stop-color:#FF0000"/>
		</linearGradient>
		<path fill="url(#SVGID_00000107565118232059008930000013025717568777856165_)" d="M43.82,81.55L31.66,62.52L12.14,31.97
			c-1.48-2.31-1.09-5.27,0.77-7.13c-0.12,0.06-0.24,0.13-0.35,0.2c-0.29,0.18-0.55,0.39-0.79,0.61c-2.04,1.85-2.51,4.94-0.98,7.34
			L30.3,63.54l12.16,19.03c3.3,5.17,10.41,6.24,15.08,2.27l0.18-0.16C53.1,87.59,46.85,86.31,43.82,81.55z"/>
		
			<linearGradient id="_x31__00000148620591391861542620000009078271926968656270_" gradientUnits="userSpaceOnUse" x1="10.8967" y1="47.7172" x2="141" y2="47.7172">
			<stop  offset="1.501733e-03" style="stop-color:#1B1464"/>
			<stop  offset="0.1102" style="stop-color:#3C1155"/>
			<stop  offset="0.3524" style="stop-color:#810B37"/>
			<stop  offset="0.5712" style="stop-color:#B70620"/>
			<stop  offset="0.7588" style="stop-color:#DE030E"/>
			<stop  offset="0.908" style="stop-color:#F60104"/>
			<stop  offset="1" style="stop-color:#FF0000"/>
		</linearGradient>
		
			<path id="_x31__00000158024475637808436990000010154348683121873332_" fill="url(#_x31__00000148620591391861542620000009078271926968656270_)" d="
			M139.23,36.97l-20.9,32.7l-7.81,12.22c-0.1,0.16-0.21,0.32-0.32,0.46c-0.01,0.01-0.02,0.02-0.02,0.03
			c-0.65,0.89-1.41,1.65-2.26,2.26c-2.65,1.91-6.09,2.43-9.19,1.38c-1.05-0.35-2.06-0.89-2.99-1.62c0,0,0,0,0,0
			c-0.11-0.08-0.21-0.16-0.31-0.25l-7.87-6.13c-1.54-1.27-3.25-2.24-5.04-2.9c0,0,0,0,0,0c-0.81-0.3-1.64-0.54-2.48-0.71h0
			c-4.08-0.84-8.39-0.2-12.1,1.93c-0.84,0.48-1.65,1.04-2.42,1.67l-6.96,6.13c-4.68,3.97-11.78,2.9-15.08-2.27L31.32,62.86
			L11.8,32.31c-1.53-2.4-1.06-5.49,0.98-7.34c0.24-0.22,0.5-0.43,0.79-0.61c2.67-1.69,6.21-0.91,7.91,1.76l17.06,26.7l6.38,10
			c1.5,2.34,4.04,3.57,6.6,3.52c1.58-0.03,3.16-0.55,4.51-1.61c3.44-2.7,6.43-5.4,9.86-8.11c0.04-0.04,0.09-0.07,0.14-0.11
			c1.6-1.26,3.37-2.19,5.22-2.8c4.48-1.49,9.44-1.09,13.67,1.19c0.93,0.5,1.82,1.09,2.67,1.76c3.3,2.64,7.04,5.29,10.33,7.93
			c2.47,1.98,5.76,2.16,8.35,0.78c1.12-0.59,2.11-1.47,2.84-2.63c0.79-1.24,1.17-2.62,1.17-3.99c0-2.57-1.42-4.4-1.81-4.87
			c-0.37-0.45-1-1.12-1.97-1.72c-1.08-0.73-2.16-1.47-3.24-2.2l-7.82-4.97c-0.82-0.52-1.5-1.17-2.05-1.91
			c-0.01-0.01-0.02-0.03-0.03-0.04c-1.15-1.93-1.32-4.37-0.29-6.48c0.01-0.03,0.03-0.05,0.04-0.08c0.1-0.21,0.21-0.41,0.34-0.61
			c2.02-3.19,6.25-4.13,9.44-2.11l11.49,7.3c0.22,0.14,0.61,0.37,1.13,0.58c1.99,0.84,4.26,0.83,6.32,0.31
			c1.15-0.58,2.24-1.86,2.98-3.01c2.14-3.35,0.75-7.9-2.58-10.07l-11.41-7.43c-3.16-2.06-4.06-6.3-2-9.46
			c0.11-0.17,0.23-0.34,0.36-0.5v0.12c0-0.08,0.03-0.16,0.08-0.22c2.18-2.67,6.07-3.33,9.02-1.4l17.5,11.39l-0.03,0.04
			C141.03,24.74,142.58,31.72,139.23,36.97z"/>
	</g>
</g>
<g id="Layer_3">
</g>
</svg>
